<svg xmlns="http://www.w3.org/2000/svg" viewBox="0 0 512 512" role="img" aria-labelledby="logoTitle logoDesc">
  <title id="logoTitle">Logo Nutrì</title>
  <desc id="logoDesc">Profilo della testa con la scritta calligrafica Nutrì racchiusa in un cerchio arancione.</desc>
  <circle cx="256" cy="256" r="240" fill="#E4552E"/>
  <path d="M338 120c32.4 0 62.4 14.6 82.4 39.5 19.3 24 29.1 55.8 26.5 87-1.4 16.1-6.4 31.8-14.4 45.8 30.6 13.7 52.5 44.5 52.5 80.8 0 42.4-29 78.6-69.4 90.4V420c0 22-17.8 39.8-39.8 39.8h-58.2c-22 0-39.8-17.8-39.8-39.8v-56.8c-32.7-9.5-57-39.9-57-75.9 0-30.8 17.7-58.3 43.7-71.6-9.9-11.1-18.2-24.7-23.8-39.8-12.8-35.3-11.2-75.8 5.7-109.2 18.8-36.5 56.6-66.9 91.6-73.2 13-2.3 26.2-3.5 39.5-3.5Z" fill="none" stroke="#fff" stroke-width="24" stroke-linecap="round" stroke-linejoin="round"/>
  <path d="M124 326c-18-86 104-120 124-38 12 50-40 94-88 58-46-34-30-122 52-140 92-20 156 92 184 146 18 34 54 56 90 40 38-18 40-72 0-88-36-14-72 32-44 74 26 38 88 24 110-30 20-48 78-58 108-18 28 36 20 102-30 140-42 32-114 34-166-6-8.6-6.6-13.6-8.3-13.6 4.5V412" fill="none" stroke="#fff" stroke-width="20" stroke-linecap="round" stroke-linejoin="round"/>
  <circle cx="364" cy="210" r="18" fill="#fff"/>
</svg>
