<svg xmlns="http://www.w3.org/2000/svg" viewBox="0 0 160 160" role="img" aria-labelledby="title desc">
  <title id="title">Logo Nutri</title>
  <desc id="desc">Profilo stilizzato di una testa all'interno di un cerchio arancione con la scritta Nutrì.</desc>
  <circle cx="80" cy="80" r="76" fill="#E85A32"/>
  <path d="M108 38c-7.2-11.3-20.5-17-34-15-22.8 3-39.2 25.2-36.2 48 2.2 17 14.8 30.8 31 34.8v12.7c0 4 3.3 7.3 7.3 7.3h5.8c4 0 7.3-3.3 7.3-7.3v-10.4c9.2-3.2 15.8-12 15.8-22 0-8.6-4.6-16.4-12-20.6 5-9.5 5.4-19.9-4.5-27.5z" fill="none" stroke="#fff" stroke-width="6" stroke-linecap="round" stroke-linejoin="round"/>
  <path d="M48 90c6-18 20-20 26-12 6 8-2 18-8 12-6-6 0-18 8-16 8 2 12 16 24 16 6 0 10-4 12-8" fill="none" stroke="#fff" stroke-width="4" stroke-linecap="round" stroke-linejoin="round"/>
  <circle cx="90" cy="66" r="3" fill="#fff"/>
</svg>
