<?xml version="1.0" standalone="no"?>
<!DOCTYPE svg PUBLIC "-//W3C//DTD SVG 20010904//EN"
 "http://www.w3.org/TR/2001/REC-SVG-20010904/DTD/svg10.dtd">
<svg version="1.0" xmlns="http://www.w3.org/2000/svg"
 width="719.000000pt" height="717.000000pt" viewBox="0 0 719.000000 717.000000"
 preserveAspectRatio="xMidYMid meet">

<g transform="translate(0.000000,717.000000) scale(0.100000,-0.100000)"
fill="#000000" stroke="none">
<path d="M3460 7093 c-559 -20 -1121 -180 -1615 -461 -67 -38 -282 -179 -335
-219 -80 -61 -182 -143 -214 -172 -232 -210 -428 -428 -568 -631 -261 -378
-435 -762 -538 -1180 -59 -245 -88 -463 -97 -735 -39 -1243 607 -2432 1674
-3081 717 -437 1571 -602 2390 -464 188 32 260 48 393 87 238 71 411 139 611
240 519 261 985 668 1309 1143 91 134 155 243 247 420 163 316 283 706 338
1100 23 161 31 578 15 760 -15 177 -51 394 -91 555 -29 114 -106 355 -134 420
-8 17 -28 64 -46 105 -44 103 -143 301 -186 374 -41 68 -100 162 -117 187 -63
92 -100 145 -105 149 -3 3 -22 25 -41 50 -55 71 -61 79 -135 164 -109 127
-247 261 -384 376 -29 25 -59 50 -66 57 -14 13 -111 84 -210 152 -600 414
-1350 630 -2095 604z m570 -572 c397 -84 765 -277 1029 -540 143 -142 273
-325 374 -526 116 -231 136 -332 147 -740 9 -318 15 -377 43 -471 51 -165 122
-255 337 -424 106 -83 174 -150 197 -195 24 -45 20 -112 -9 -170 -32 -61 -55
-83 -136 -125 -79 -42 -143 -111 -165 -180 -21 -65 -22 -154 -2 -210 25 -70
20 -114 -15 -143 -16 -14 -44 -29 -62 -32 -18 -4 -41 -13 -52 -21 -17 -11 -14
-14 33 -35 66 -28 81 -50 81 -119 0 -66 -16 -92 -72 -121 -22 -11 -60 -39 -84
-61 -41 -38 -44 -44 -44 -94 0 -66 11 -95 51 -136 43 -45 75 -97 90 -146 24
-82 -31 -162 -159 -230 -103 -55 -189 -77 -467 -117 -259 -38 -374 -66 -436
-108 -58 -39 -155 -266 -221 -512 -27 -104 -32 -138 -33 -258 -1 -83 -6 -142
-13 -149 -26 -26 -63 -11 -130 56 -112 111 -371 296 -552 394 -339 186 -635
319 -831 376 -192 55 -476 100 -829 130 -134 12 -167 18 -177 32 -17 23 -16
48 1 82 19 37 51 174 72 307 12 76 18 169 18 305 0 274 -20 342 -155 517 -122
158 -124 161 -113 191 8 22 17 28 46 30 37 3 38 2 128 -119 50 -67 104 -145
121 -173 82 -143 105 -381 68 -706 -12 -103 -44 -276 -59 -315 -6 -15 -9 -29
-7 -31 2 -2 72 -11 156 -19 384 -39 643 -85 836 -151 302 -102 754 -329 1034
-520 51 -35 95 -64 97 -64 4 0 8 -3 101 -79 34 -28 64 -51 67 -51 3 0 8 17 11
38 40 243 116 488 203 652 46 87 76 118 147 150 104 47 197 69 489 110 178 26
280 51 361 89 61 28 125 82 125 105 0 14 -45 82 -95 144 -41 51 -55 96 -55
182 0 54 5 72 28 106 30 45 74 85 140 127 24 16 42 33 39 40 -2 6 -25 19 -52
29 -63 23 -85 46 -92 96 -5 37 -2 43 40 85 29 29 60 50 87 57 30 8 40 15 36
26 -36 95 -27 263 19 354 34 68 119 148 199 189 53 27 72 43 87 74 34 66 18
88 -191 257 -169 137 -233 207 -285 310 -78 154 -94 255 -105 640 -9 356 -17
409 -87 589 -49 125 -178 343 -279 469 -272 341 -716 589 -1186 663 -54 8
-155 10 -330 6 -318 -7 -494 -29 -748 -92 -498 -124 -872 -350 -1159 -700
-217 -264 -368 -612 -397 -918 -4 -34 -13 -72 -20 -85 -18 -27 -55 -29 -79 -2
-15 16 -16 30 -10 87 25 243 120 528 244 733 11 19 24 42 28 50 9 20 131 187
168 230 52 61 218 225 270 267 330 266 760 439 1267 508 200 27 304 33 543 31
193 -2 247 -6 335 -25z m-1747 -1612 c39 -43 36 -94 -14 -230 l-41 -112 33
-96 c17 -53 61 -175 96 -271 35 -96 78 -215 95 -265 17 -49 33 -93 37 -97 6
-7 126 307 136 354 2 10 10 32 18 50 8 18 40 103 72 188 53 146 55 155 38 167
-75 54 -103 104 -103 183 0 117 87 192 185 160 75 -25 108 -108 84 -214 -6
-30 -10 -59 -8 -63 7 -12 93 -2 134 16 52 24 96 66 119 118 22 49 57 64 87 37
24 -22 24 -38 -1 -89 -53 -109 -161 -174 -301 -182 l-86 -6 -38 -106 c-21 -58
-71 -196 -111 -306 -40 -110 -95 -262 -123 -339 l-50 -139 19 -81 c46 -188 14
-286 -91 -286 -70 0 -101 29 -106 101 -4 45 2 72 36 164 l41 110 -42 120 c-23
66 -70 197 -105 290 -35 94 -65 175 -67 180 -1 6 -13 41 -25 79 -23 66 -24 68
-36 45 -7 -13 -61 -159 -120 -324 -59 -165 -125 -338 -147 -385 -124 -269
-256 -382 -448 -381 -206 1 -375 129 -436 330 -16 53 -18 157 -4 219 38 165
194 332 333 359 18 3 61 25 97 48 99 64 150 79 260 80 l95 0 3 -28 c5 -42 -12
-54 -86 -61 -69 -7 -172 -34 -172 -45 0 -3 18 -16 40 -29 102 -58 134 -184 71
-286 -58 -94 -203 -113 -292 -39 -16 14 -36 37 -43 52 -21 39 -29 113 -18 154
6 23 7 37 1 37 -5 0 -38 -28 -72 -63 -133 -132 -165 -292 -90 -441 50 -100
148 -168 267 -188 54 -9 73 -8 122 8 152 48 238 176 384 574 39 107 73 202 75
210 2 8 28 80 58 160 79 209 82 220 68 273 -34 139 -32 234 7 286 37 50 119
50 165 0z m2548 -446 c87 -85 109 -113 109 -135 0 -29 -24 -49 -50 -40 -19 6
-52 34 -157 130 -64 58 -83 81 -83 101 0 34 17 51 48 51 18 0 55 -30 133 -107z
m-995 11 c5 -21 -39 -181 -72 -261 -4 -10 11 -13 60 -13 55 0 67 -3 80 -21 13
-20 14 -18 14 26 0 79 48 125 130 125 81 0 129 -82 104 -177 -7 -24 -12 -50
-12 -57 0 -9 45 -30 121 -57 90 -32 123 -48 129 -63 7 -21 -1 -64 -20 -101
-17 -35 -99 -295 -112 -356 -16 -77 -4 -113 37 -117 90 -8 185 138 305 468
110 305 123 330 161 330 10 0 26 -11 34 -24 15 -23 12 -35 -66 -258 -135 -384
-153 -454 -130 -497 27 -50 121 -5 179 85 17 27 52 93 77 147 50 104 73 126
110 102 37 -23 30 -58 -37 -187 -98 -191 -182 -268 -288 -268 -73 0 -123 32
-137 88 -6 23 -6 23 -47 -16 -55 -54 -95 -72 -156 -72 -68 0 -107 22 -131 73
-35 79 -24 160 59 405 48 141 49 144 28 152 -12 4 -52 19 -89 33 l-68 26 -50
-106 c-27 -58 -49 -108 -49 -110 0 -16 -112 -230 -150 -288 -62 -92 -104 -132
-168 -162 -44 -21 -65 -25 -118 -21 -54 3 -68 8 -94 33 -16 16 -30 34 -30 41
0 28 -24 24 -58 -9 -52 -49 -93 -67 -152 -67 -73 0 -108 22 -132 83 l-10 27
-40 -36 c-63 -56 -118 -77 -197 -72 -108 6 -158 55 -168 168 -3 31 0 81 6 111
11 53 83 267 102 302 5 10 25 59 44 110 50 137 68 181 78 195 12 15 59 16 75
0 22 -22 24 -14 -96 -328 -30 -80 -59 -161 -64 -180 -6 -19 -14 -39 -18 -45
-16 -19 -33 -131 -26 -167 17 -94 147 -88 225 11 35 44 108 187 139 271 91
249 159 427 165 438 10 15 59 16 75 0 18 -18 15 -51 -14 -125 -14 -38 -39
-104 -54 -148 -16 -44 -42 -118 -60 -165 -47 -130 -82 -276 -75 -310 14 -65
99 -45 159 37 51 69 119 204 159 313 57 151 107 294 107 303 0 4 -27 7 -60 7
-52 0 -61 3 -76 25 -15 23 -15 27 0 50 15 23 22 25 97 25 55 0 81 4 84 13 23
72 79 229 90 255 13 27 20 32 50 32 29 0 36 -4 41 -26z"/>
<path d="M2186 4835 c-3 -9 -6 -35 -6 -58 l1 -42 14 32 c7 17 15 42 17 54 4
26 -17 37 -26 14z"/>
<path d="M2773 4842 c-36 -23 -34 -92 4 -134 23 -26 31 -22 42 20 25 87 1 144
-46 114z"/>
<path d="M1415 4090 c-9 -17 -19 -53 -22 -80 -5 -45 -3 -51 26 -81 29 -29 36
-31 79 -26 107 12 122 141 22 189 -70 33 -87 33 -105 -2z"/>
<path d="M2465 3447 c-8 -53 -2 -69 14 -38 8 14 9 32 3 53 l-9 33 -8 -48z"/>
<path d="M4020 4207 c0 -13 6 -32 14 -42 13 -18 14 -17 21 13 7 35 1 52 -21
52 -8 0 -14 -10 -14 -23z"/>
<path d="M3902 4120 c-11 -17 -23 -20 -95 -20 l-82 0 -27 -73 c-83 -225 -111
-307 -143 -412 -49 -161 -44 -215 19 -215 75 0 149 65 224 197 34 61 65 126
177 366 l33 72 -39 44 c-22 24 -39 48 -39 52 0 16 -15 10 -28 -11z"/>
</g>
</svg>
