<svg xmlns="http://www.w3.org/2000/svg" viewBox="0 0 512 512">
  <circle cx="256" cy="256" r="256" fill="#e5f5eb"/>
  <path fill="#25d366" d="M440 256c0 101.5-82.5 184-184 184a183 183 0 0 1-88.9-22.7L72 440l22.2-95.9A183.7 183.7 0 0 1 72 256c0-101.5 82.5-184 184-184s184 82.5 184 184z"/>
  <path fill="#128c7e" d="M419.5 256c0 89.8-73 162.7-162.7 162.7a162.5 162.5 0 0 1-79-20.2l-62.7 16.3 16.6-61.1a162.6 162.6 0 0 1-20.3-77.7c0-89.8 73-162.7 162.7-162.7s162.7 72.9 162.7 162.7z" opacity=".2"/>
  <path fill="#25d366" d="M402.6 256c0 80.8-65.5 146.3-146.3 146.3-26 0-51-6.8-73.2-19.8l-6.5-3.8-47.5 12.3 12.7-46.7-4.2-6.9a146.2 146.2 0 0 1-22.5-77.9c0-80.8 65.5-146.3 146.3-146.3S402.6 175.2 402.6 256z"/>
  <path fill="#fff" d="M349.2 274.9c-7.3-3.5-43.2-21.4-49.9-23.9-6.7-2.5-11.7-3.7-16.6 3.7-4.8 7.3-19 23.9-23.2 28.8-4.2 4.8-8.1 5.4-15.4 1.8-7.3-3.5-30.9-12.4-58.9-39.7-21.8-21.4-36.5-47.8-40.7-55.1-4.2-7.3-.5-11.2 3.1-14.6 3.2-3.2 7.3-8.3 10.6-12.5 3.5-4.2 4.8-7.3 7.3-12.1 2.5-4.8 1.2-9-0.6-12.5-1.8-3.5-16.6-40-22.7-54.6-6-14.6-12.1-12.6-16.6-12.8-4.2-.2-9-.2-13.8-.2-4.8 0-12.5 1.8-19 9-6.6 7.3-25 24.5-25 59.8 0 35.3 25.6 69.5 29.1 74.3 3.5 4.8 50.3 76.9 121.9 107.8 17 7.3 30.3 11.7 40.7 15 17.1 5.4 32.7 4.6 45 2.8 13.7-2 43.2-17.7 49.3-34.8 6.1-17.1 6.1-31.7 4.2-34.8-1.8-3.1-6.7-4.9-14-8.4z"/>
</svg>
